<svg width="76" height="76" viewBox="0 0 76 76" fill="none" xmlns="http://www.w3.org/2000/svg">
<g clip-path="url(#clip0_72_1543)">
<rect x="-2" y="-2" width="80" height="80" rx="5" fill="#9FCA94"/>
<path d="M29.9528 34.2524H32.0378L31.0928 33.2699C30.9556 33.1257 30.8812 32.9329 30.8861 32.7339C30.8911 32.5348 30.9749 32.3459 31.1191 32.2087C31.2633 32.0714 31.4561 31.9971 31.6551 32.002C31.8541 32.0069 32.0431 32.0907 32.1803 32.2349L34.1078 34.2524H44.8028L30.5528 20.0024C30.4135 19.863 30.2481 19.7523 30.066 19.6768C29.8839 19.6014 29.6887 19.5625 29.4916 19.5625C29.2944 19.5625 29.0992 19.6014 28.9172 19.6768C28.7351 19.7523 28.5696 19.863 28.4303 20.0024L22.0703 26.3624L29.9528 34.2524ZM28.4528 22.1474C28.5921 22.008 28.7576 21.8973 28.9397 21.8218C29.1217 21.7464 29.3169 21.7075 29.5141 21.7075C29.7112 21.7075 29.9064 21.7464 30.0885 21.8218C30.2706 21.8973 30.436 22.008 30.5753 22.1474L34.2878 25.8974C34.4273 26.0367 34.5379 26.2022 34.6134 26.3843C34.6889 26.5664 34.7277 26.7616 34.7277 26.9587C34.7277 27.1558 34.6889 27.351 34.6134 27.5331C34.5379 27.7152 34.4273 27.8806 34.2878 28.0199L31.1078 31.1999C30.9685 31.3394 30.8031 31.45 30.621 31.5255C30.4389 31.601 30.2437 31.6399 30.0466 31.6399C29.8494 31.6399 29.6542 31.601 29.4722 31.5255C29.2901 31.45 29.1246 31.3394 28.9853 31.1999L25.2353 27.4874C25.0958 27.3481 24.9852 27.1827 24.9097 27.0006C24.8342 26.8185 24.7954 26.6233 24.7954 26.4262C24.7954 26.2291 24.8342 26.0339 24.9097 25.8518C24.9852 25.6697 25.0958 25.5042 25.2353 25.3649L28.4528 22.1474Z" fill="white"/>
<path d="M26.3281 26.3906L27.3888 25.33L28.9798 26.921L27.9191 27.9816L26.3281 26.3906Z" fill="white"/>
<path d="M19.9477 30.6253L23.5927 34.2478H27.8302L21.0277 27.4453L19.9477 28.5028C19.8083 28.6421 19.6976 28.8076 19.6222 28.9897C19.5467 29.1717 19.5078 29.3669 19.5078 29.5641C19.5078 29.7612 19.5467 29.9564 19.6222 30.1385C19.6976 30.3206 19.8083 30.486 19.9477 30.6253Z" fill="white"/>
<path d="M28.9766 29.0391L32.1585 25.8571L33.2192 26.9177L30.0372 30.0997L28.9766 29.0391Z" fill="white"/>
<path d="M28.4531 24.2656L29.5138 23.205L31.1048 24.796L30.0441 25.8566L28.4531 24.2656Z" fill="white"/>
<path d="M44.8056 52.25L46.8081 40.25H20.0781L22.0806 52.25H44.8056Z" fill="white"/>
<path d="M47.5581 35.75H19.3281L19.8306 38.75H47.0556L47.5581 35.75Z" fill="white"/>
<path d="M57.4453 34.2501H51.4453C51.2677 34.2472 51.0949 34.3074 50.9575 34.42C50.8202 34.5327 50.7273 34.6904 50.6953 34.8651L47.0653 55.2501H21.4453C21.2464 55.2501 21.0556 55.3291 20.915 55.4698C20.7743 55.6104 20.6953 55.8012 20.6953 56.0001C20.6953 56.199 20.7743 56.3898 20.915 56.5304C21.0556 56.6711 21.2464 56.7501 21.4453 56.7501H24.2803C23.9871 57.0726 23.794 57.4734 23.7243 57.9037C23.6546 58.3339 23.7113 58.7752 23.8877 59.1738C24.064 59.5724 24.3524 59.9112 24.7177 60.149C25.0829 60.3869 25.5094 60.5135 25.9453 60.5135C26.3812 60.5135 26.8077 60.3869 27.173 60.149C27.5382 59.9112 27.8266 59.5724 28.0029 59.1738C28.1793 58.7752 28.2361 58.3339 28.1664 57.9037C28.0967 57.4734 27.9035 57.0726 27.6103 56.7501H39.2803C38.9871 57.0726 38.794 57.4734 38.7243 57.9037C38.6546 58.3339 38.7113 58.7752 38.8877 59.1738C39.064 59.5724 39.3524 59.9112 39.7177 60.149C40.0829 60.3869 40.5094 60.5135 40.9453 60.5135C41.3812 60.5135 41.8077 60.3869 42.173 60.149C42.5382 59.9112 42.8266 59.5724 43.0029 59.1738C43.1793 58.7752 43.2361 58.3339 43.1664 57.9037C43.0967 57.4734 42.9035 57.0726 42.6103 56.7501H47.6953C47.8729 56.753 48.0458 56.6928 48.1831 56.5802C48.3204 56.4675 48.4134 56.3098 48.4453 56.1351L52.0753 35.7501H57.4453C57.6442 35.7501 57.835 35.6711 57.9756 35.5304C58.1163 35.3898 58.1953 35.199 58.1953 35.0001C58.1953 34.8012 58.1163 34.6104 57.9756 34.4698C57.835 34.3291 57.6442 34.2501 57.4453 34.2501Z" fill="white"/>
<path d="M41.6953 20.75C41.8942 20.75 42.085 20.671 42.2256 20.5303C42.3663 20.3897 42.4453 20.1989 42.4453 20V15.5C42.4453 15.3011 42.3663 15.1103 42.2256 14.9697C42.085 14.829 41.8942 14.75 41.6953 14.75C41.4964 14.75 41.3056 14.829 41.165 14.9697C41.0243 15.1103 40.9453 15.3011 40.9453 15.5V20C40.9453 20.1989 41.0243 20.3897 41.165 20.5303C41.3056 20.671 41.4964 20.75 41.6953 20.75Z" fill="white"/>
<path d="M41.6953 24.5C41.8942 24.5 42.085 24.421 42.2256 24.2803C42.3663 24.1397 42.4453 23.9489 42.4453 23.75V22.25C42.4453 22.0511 42.3663 21.8603 42.2256 21.7197C42.085 21.579 41.8942 21.5 41.6953 21.5C41.4964 21.5 41.3056 21.579 41.165 21.7197C41.0243 21.8603 40.9453 22.0511 40.9453 22.25V23.75C40.9453 23.9489 41.0243 24.1397 41.165 24.2803C41.3056 24.421 41.4964 24.5 41.6953 24.5Z" fill="white"/>
<path d="M44.6953 27.5C44.8942 27.5 45.085 27.421 45.2256 27.2803C45.3663 27.1397 45.4453 26.9489 45.4453 26.75V17C45.4453 16.8011 45.3663 16.6103 45.2256 16.4697C45.085 16.329 44.8942 16.25 44.6953 16.25C44.4964 16.25 44.3056 16.329 44.165 16.4697C44.0243 16.6103 43.9453 16.8011 43.9453 17V26.75C43.9453 26.9489 44.0243 27.1397 44.165 27.2803C44.3056 27.421 44.4964 27.5 44.6953 27.5Z" fill="white"/>
<path d="M22.1953 19.25C22.3942 19.25 22.585 19.171 22.7256 19.0303C22.8663 18.8897 22.9453 18.6989 22.9453 18.5V15.5C22.9453 15.3011 22.8663 15.1103 22.7256 14.9697C22.585 14.829 22.3942 14.75 22.1953 14.75C21.9964 14.75 21.8056 14.829 21.665 14.9697C21.5243 15.1103 21.4453 15.3011 21.4453 15.5V18.5C21.4453 18.6989 21.5243 18.8897 21.665 19.0303C21.8056 19.171 21.9964 19.25 22.1953 19.25Z" fill="white"/>
<path d="M19.9453 23C20.1442 23 20.335 22.921 20.4756 22.7803C20.6163 22.6397 20.6953 22.4489 20.6953 22.25V20.75C20.6953 20.5511 20.6163 20.3603 20.4756 20.2197C20.335 20.079 20.1442 20 19.9453 20C19.7464 20 19.5556 20.079 19.415 20.2197C19.2743 20.3603 19.1953 20.5511 19.1953 20.75V22.25C19.1953 22.4489 19.2743 22.6397 19.415 22.7803C19.5556 22.921 19.7464 23 19.9453 23Z" fill="white"/>
</g>
<defs>
<clipPath id="clip0_72_1543">
<rect width="76" height="76" fill="white" transform="matrix(-1 0 0 -1 76 76)"/>
</clipPath>
</defs>
</svg>
