<svg width="754" height="59" viewBox="0 0 754 59" fill="none" xmlns="http://www.w3.org/2000/svg">
<g clip-path="url(#clip0_72_1586)">
<path d="M431.241 6H409.08C401.868 6 396 11.6581 396 18.6129V39.9828C396 46.9373 401.868 52.5954 409.08 52.5954H431.241C438.454 52.5954 444.321 46.9373 444.321 39.9828V18.6129C444.321 11.6581 438.454 6 431.241 6ZM441.488 39.9828C441.488 45.4311 436.892 49.8638 431.241 49.8638H409.08C403.43 49.8638 398.833 45.4311 398.833 39.9828V18.6129C398.833 13.1643 403.43 8.73162 409.08 8.73162H431.241C436.892 8.73162 441.488 13.1643 441.488 18.6129V39.9828Z" fill="#9B9E9E"/>
<path d="M420.158 16.5547C412.872 16.5547 406.945 22.27 406.945 29.2953C406.945 36.3205 412.872 42.0358 420.158 42.0358C427.443 42.0358 433.37 36.3205 433.37 29.2953C433.37 22.27 427.443 16.5547 420.158 16.5547ZM420.158 39.3042C414.435 39.3042 409.778 34.8143 409.778 29.2953C409.778 23.7766 414.435 19.2863 420.158 19.2863C425.881 19.2863 430.537 23.7766 430.537 29.2953C430.537 34.8143 425.881 39.3042 420.158 39.3042Z" fill="#9B9E9E"/>
<path d="M433.685 12.0312C431.532 12.0312 429.781 13.7202 429.781 15.7959C429.781 17.872 431.532 19.561 433.685 19.561C435.838 19.561 437.59 17.872 437.59 15.7959C437.59 13.7198 435.838 12.0312 433.685 12.0312ZM433.685 16.829C433.095 16.829 432.614 16.3654 432.614 15.7959C432.614 15.2261 433.095 14.7629 433.685 14.7629C434.276 14.7629 434.757 15.2261 434.757 15.7959C434.757 16.3654 434.276 16.829 433.685 16.829Z" fill="#9B9E9E"/>
</g>
<path d="M322.621 25.1679C322.621 22.2569 320.326 19.8906 317.502 19.8906C314.678 19.8906 312.383 22.2569 312.383 25.1679C312.383 28.0789 314.678 30.4452 317.502 30.4452C320.326 30.4452 322.621 28.0789 322.621 25.1679Z" fill="#9B9E9E"/>
<path d="M317.503 32.5547C312.509 32.5547 308.289 34.9717 308.289 37.832C308.289 46.4107 311.391 53.077 312.683 54.4111C313.527 55.2786 315.282 55.7747 317.503 55.7747C319.725 55.7747 321.48 55.2786 322.323 54.4111C323.616 53.077 326.718 46.4107 326.718 37.832C326.718 34.9717 322.498 32.5547 317.503 32.5547Z" fill="#9B9E9E"/>
<path d="M317.5 3C305.644 3 296 12.9424 296 25.1646C296 32.2382 299.311 38.932 304.86 43.0757C305.313 43.4134 305.958 43.3163 306.289 42.8392C306.623 42.3663 306.519 41.7078 306.06 41.3658C301.043 37.6189 298.048 31.5628 298.048 25.1646C298.048 14.1076 306.775 5.11091 317.5 5.11091C328.225 5.11091 336.952 14.1076 336.952 25.1646C336.952 31.5628 333.957 37.6189 328.94 41.3658C328.481 41.7078 328.377 42.3664 328.711 42.8392C328.909 43.1263 329.225 43.2761 329.54 43.2761C329.749 43.2761 329.96 43.2107 330.14 43.0756C335.689 38.9319 339 32.2382 339 25.1645C339 12.9424 329.356 3 317.5 3Z" fill="#9B9E9E"/>
<path d="M317.505 11.4375C310.166 11.4375 304.195 17.593 304.195 25.1584C304.195 28.1538 305.117 30.9888 306.861 33.3551C307.205 33.8196 307.846 33.9082 308.297 33.5578C308.747 33.2052 308.835 32.5403 308.493 32.0759C307.021 30.081 306.243 27.6873 306.243 25.1584C306.243 18.7582 311.296 13.5484 317.505 13.5484C323.713 13.5484 328.767 18.7582 328.767 25.1584C328.767 27.6873 327.989 30.081 326.516 32.0759C326.174 32.5403 326.262 33.2052 326.713 33.5578C326.899 33.7013 327.116 33.7709 327.333 33.7709C327.64 33.7709 327.947 33.6273 328.148 33.355C329.893 30.9887 330.814 28.1537 330.814 25.1583C330.814 17.593 324.843 11.4375 317.505 11.4375Z" fill="#9B9E9E"/>
<path d="M223.25 46.6316V51.9605C223.25 52.4316 223.066 52.8835 222.737 53.2166C222.409 53.5497 221.964 53.7368 221.5 53.7368C221.036 53.7368 220.591 53.5497 220.263 53.2166C219.934 52.8835 219.75 52.4316 219.75 51.9605V46.6316C215.418 46.1897 211.405 44.1249 208.492 40.8404C205.58 37.5558 203.978 33.2873 204 28.8684C204 28.3973 204.185 27.9455 204.513 27.6124C204.841 27.2793 205.286 27.0921 205.75 27.0921C206.214 27.0921 206.659 27.2793 206.988 27.6124C207.316 27.9455 207.5 28.3973 207.5 28.8684C207.5 32.6373 208.975 36.2518 211.601 38.9168C214.226 41.5818 217.787 43.0789 221.5 43.0789C225.213 43.0789 228.774 41.5818 231.399 38.9168C234.025 36.2518 235.5 32.6373 235.5 28.8684C235.5 28.3973 235.684 27.9455 236.012 27.6124C236.341 27.2793 236.786 27.0921 237.25 27.0921C237.714 27.0921 238.159 27.2793 238.487 27.6124C238.815 27.9455 239 28.3973 239 28.8684C239.022 33.2873 237.42 37.5558 234.508 40.8404C231.595 44.1249 227.582 46.1897 223.25 46.6316ZM209.25 28.8684V16.4342C209.25 13.1365 210.541 9.97376 212.838 7.6419C215.135 5.31003 218.251 4 221.5 4C224.749 4 227.865 5.31003 230.162 7.6419C232.459 9.97376 233.75 13.1365 233.75 16.4342V28.8684C233.75 32.1662 232.459 35.3289 230.162 37.6607C227.865 39.9926 224.749 41.3026 221.5 41.3026C218.251 41.3026 215.135 39.9926 212.838 37.6607C210.541 35.3289 209.25 32.1662 209.25 28.8684ZM212.75 28.8684C212.75 31.224 213.672 33.483 215.313 35.1486C216.954 36.8143 219.179 37.75 221.5 37.75C223.821 37.75 226.046 36.8143 227.687 35.1486C229.328 33.483 230.25 31.224 230.25 28.8684V16.4342C230.25 14.0787 229.328 11.8196 227.687 10.154C226.046 8.48837 223.821 7.55263 221.5 7.55263C219.179 7.55263 216.954 8.48837 215.313 10.154C213.672 11.8196 212.75 14.0787 212.75 16.4342V28.8684Z" fill="#9B9E9E"/>
<path d="M130.401 26.5138L145.664 10H142.047L128.794 24.3387L118.209 10H106L122.007 31.6827L106 49H109.617L123.613 33.8578L134.791 49H147L130.401 26.5138ZM125.446 31.8737L123.825 29.7146L110.92 12.5344H116.476L126.89 26.3994L128.512 28.5585L142.049 46.5809H136.493L125.446 31.8737Z" fill="#9B9E9E"/>
<path d="M6.4155 45.4158C6.96517 47.9009 7.55511 48.9301 10.7243 48.3958C11.6465 48.2384 12.7982 48.0417 14.2156 48.2819C16.5674 48.6837 22.7849 56.8304 31.626 49.6445C33.3515 48.402 34.2938 47.7145 37.6422 48.3896C39.104 48.6816 40.9785 48.373 41.8946 45.4158C50.631 43.7985 48.7545 38.8429 46.137 38.4101C41.5866 37.646 38.5684 32.8146 38.2463 31.2739C38.5664 31.071 39.2671 30.8204 39.7141 30.663C47.0934 28.0372 42.9859 21.6465 37.9684 23.6179C38.2966 18.2337 38.3912 13.9201 34.1086 9.78456C29.5562 5.40262 22.5232 5.20174 17.9305 7.27468C9.92495 10.8738 9.98737 17.8464 10.3438 23.7008C7.15242 22.4458 4.98796 24.2537 4.63963 26.1071C4.1121 29.0291 6.82624 30.0107 8.44506 30.5967C9.01084 30.8018 9.95516 31.1434 10.0981 31.2532C9.92294 31.4624 8.90816 36.1032 2.89799 38.1533C1.75032 38.5447 0.665062 38.9154 0.193913 39.9964C-0.0859572 40.6425 -0.0638092 41.3673 0.266398 42.148C1.07782 44.0863 3.71545 44.9188 6.4155 45.4158ZM12.6874 32.9555C14.0163 30.2012 12.2726 28.6998 9.44978 27.6768C8.85379 27.4615 7.74639 27.0597 7.60142 26.6911C7.65176 26.5606 8.04841 26.2997 8.42493 26.2997C8.54171 26.308 8.87594 26.4405 9.09742 26.5254C18.6452 30.2447 7.37994 15.3966 19.1405 10.1118C22.7426 8.4882 28.489 8.6166 32.0448 12.0439C37.7449 17.5441 33.2609 25.5749 35.7335 26.7325C37.4932 27.5546 39.1765 26.2893 39.7845 26.2707C40.2577 26.2707 40.6705 26.5606 40.7147 26.6642C40.7228 27.0307 39.4765 27.4739 38.7315 27.7389C35.2885 28.9628 34.2133 30.429 36.1603 34.0799C37.6281 36.8342 40.7329 40.2615 44.8444 41.301C41.9591 43.0157 39.7684 41.506 39.1281 44.0988C38.7979 45.4759 38.5865 45.4283 38.2221 45.3558C28.0219 43.3015 28.7186 54.1984 18.3513 47.0767C14.8136 44.6475 14.123 44.9064 9.52226 45.4531C9.32897 44.6724 9.20414 43.8275 8.93635 43.318C8.20949 41.9347 5.51951 42.6347 3.41142 41.2451C7.64169 39.7562 10.5028 38.0042 12.6874 32.9555Z" fill="#9B9E9E"/>
<path d="M523.319 58.6758H513.581C511.955 58.6758 510.631 57.3991 510.631 55.8296V34.6355H504.95C503.323 34.6355 502 33.3583 502 31.7893V22.7076C502 21.1381 503.323 19.8614 504.95 19.8614H510.631V15.3136C510.631 10.8043 512.099 6.96784 514.875 4.21965C517.663 1.45893 521.56 0 526.144 0L533.57 0.0116391C535.194 0.0143251 536.515 1.29105 536.515 2.85787V11.29C536.515 12.8595 535.192 14.1362 533.566 14.1362L528.566 14.138C527.041 14.138 526.652 14.433 526.569 14.5235C526.433 14.6734 526.27 15.0974 526.27 16.268V19.8609H533.19C533.712 19.8609 534.216 19.9849 534.65 20.2186C535.586 20.7231 536.168 21.6771 536.168 22.708L536.164 31.7897C536.164 33.3583 534.841 34.6351 533.214 34.6351H526.27V55.8296C526.27 57.3991 524.946 58.6758 523.319 58.6758ZM514.196 55.236H522.704V33.0956C522.704 32.0476 523.588 31.1952 524.674 31.1952H532.599L532.602 23.3012H524.673C523.588 23.3012 522.704 22.4488 522.704 21.4009V16.268C522.704 14.9241 522.846 13.3958 523.897 12.2471C525.167 10.8585 527.169 10.6982 528.565 10.6982L532.95 10.6964V3.45057L526.141 3.43982C518.774 3.43982 514.196 7.98985 514.196 15.3136V21.4009C514.196 22.4484 513.313 23.3012 512.227 23.3012H505.565V31.1952H512.227C513.313 31.1952 514.196 32.0476 514.196 33.0956V55.236Z" fill="#9B9E9E"/>
<path d="M629.836 27.0339L617.532 20.0638C616.825 19.663 615.989 19.678 615.295 20.1034C614.601 20.5292 614.188 21.2815 614.188 22.1165V35.9371C614.188 36.7681 614.599 37.5191 615.288 37.9454C615.648 38.168 616.047 38.2797 616.447 38.2797C616.813 38.2797 617.18 38.186 617.518 37.9977L629.822 31.1477C630.552 30.7407 631.008 29.9546 631.011 29.0954C631.014 28.2363 630.564 27.4466 629.836 27.0339ZM617.451 34.1985V23.8691L626.646 29.0787L617.451 34.1985Z" fill="#9B9E9E"/>
<path d="M649.945 17.9269L649.942 17.9015C649.895 17.4545 649.42 13.4788 647.458 11.4567C645.191 9.07823 642.62 8.78929 641.384 8.65075C641.282 8.63931 641.188 8.62872 641.104 8.6177L641.006 8.60753C633.555 8.07372 622.302 8.00085 622.19 8.00042L622.18 8L622.17 8.00042C622.057 8.00085 610.805 8.07372 603.287 8.60753L603.188 8.6177C603.108 8.62829 603.019 8.63804 602.924 8.64905C601.702 8.78802 599.159 9.07738 596.885 11.5418C595.016 13.5424 594.476 17.4329 594.421 17.8701L594.415 17.9269C594.398 18.1129 594 22.5406 594 26.9857V31.141C594 35.5861 594.398 40.0138 594.415 40.2002L594.418 40.2281C594.465 40.6679 594.94 44.5707 596.893 46.5937C599.024 48.8925 601.72 49.1967 603.17 49.3602C603.399 49.3861 603.597 49.4081 603.731 49.4314L603.861 49.4492C608.163 49.8525 621.652 50.0512 622.224 50.0593L622.241 50.0597L622.258 50.0593C622.371 50.0589 633.623 49.986 641.074 49.4522L641.172 49.442C641.266 49.4297 641.372 49.4187 641.488 49.4068C642.703 49.2797 645.232 49.0158 647.475 46.5848C649.343 44.5838 649.884 40.6933 649.939 40.2565L649.945 40.1998C649.962 40.0133 650.36 35.5861 650.36 31.141V26.9857C650.36 22.5406 649.962 18.1133 649.945 17.9269ZM647.057 31.141C647.057 35.2552 646.692 39.4922 646.658 39.8812C646.518 40.9526 645.948 43.4141 645.038 44.389C643.634 45.9103 642.192 46.0612 641.14 46.1709C641.012 46.184 640.895 46.1967 640.788 46.2099C633.581 46.7233 622.754 46.8021 622.255 46.8051C621.696 46.7971 608.405 46.5967 604.234 46.2149C604.02 46.1806 603.789 46.1544 603.546 46.1273C602.311 45.9879 600.621 45.7972 599.322 44.389L599.291 44.3568C598.397 43.4387 597.844 41.1369 597.703 39.8939C597.677 39.5999 597.303 35.3128 597.303 31.141V26.9857C597.303 22.8761 597.667 18.6437 597.702 18.2467C597.869 16.9846 598.45 14.6723 599.322 13.7377C600.768 12.1701 602.294 11.9964 603.302 11.8816C603.399 11.8706 603.489 11.8604 603.572 11.8498C610.883 11.3338 621.788 11.2571 622.18 11.2542C622.571 11.2567 633.473 11.3338 640.719 11.8498C640.808 11.8609 640.905 11.8719 641.01 11.8837C642.047 12.0002 643.616 12.1765 645.055 13.689L645.068 13.7029C645.962 14.621 646.516 16.963 646.657 18.2311C646.681 18.5086 647.057 22.805 647.057 26.9857V31.141Z" fill="#9B9E9E"/>
<g clip-path="url(#clip1_72_1586)">
<path d="M753.099 9.7682C752.359 9.09015 751.307 8.86419 750.354 9.17837L709.907 22.5113C708.805 22.8746 708.058 23.8586 708.003 25.0178C707.949 26.1772 708.601 27.227 709.664 27.6923L719.667 32.0688C719.715 32.2952 722.587 45.6133 722.684 46.066C722.81 46.6474 723.105 47.1654 723.73 47.3247C724.363 47.4858 724.809 47.1401 725.281 46.7869C725.544 46.5903 732.704 41.2287 732.704 41.2287L741.382 48.3299C741.887 48.7437 742.505 48.9595 743.135 48.9595C743.435 48.9594 743.738 48.9105 744.032 48.8106C744.946 48.5009 745.623 47.7555 745.843 46.8167L753.926 12.4513C754.156 11.4742 753.839 10.4462 753.099 9.7682ZM725.928 34.5766C725.923 34.5883 725.918 34.6015 725.913 34.6173L724.24 40.4632L722.373 31.8027L735.213 24.6687L726.236 34.0554C726.094 34.2033 725.99 34.3821 725.928 34.5766ZM726.459 42.53L727.219 39.8747L727.946 37.3349L730.55 39.4663L726.459 42.53ZM751.296 11.8326L743.214 46.198C743.21 46.2151 743.204 46.2387 743.165 46.252C743.126 46.2653 743.106 46.2502 743.093 46.239L733.597 38.4686C733.597 38.4684 733.597 38.4682 733.597 38.468L729.197 34.8678L743.332 20.0886C743.793 19.6059 743.833 18.8583 743.425 18.3296C743.016 17.8008 742.283 17.6497 741.699 17.9743L720.77 29.6026L710.747 25.2171C710.716 25.2038 710.699 25.1963 710.702 25.1447C710.704 25.0932 710.722 25.0874 710.753 25.0769L751.2 11.7441C751.219 11.7378 751.242 11.7304 751.274 11.76C751.307 11.7899 751.301 11.8125 751.296 11.8326Z" fill="#9B9E9E"/>
</g>
<defs>
<clipPath id="clip0_72_1586">
<rect width="48.3212" height="46.5955" fill="white" transform="translate(396 6)"/>
</clipPath>
<clipPath id="clip1_72_1586">
<rect width="46" height="46" fill="white" transform="translate(708 6)"/>
</clipPath>
</defs>
</svg>
