<svg width="45" height="45" viewBox="0 0 45 45" fill="none" xmlns="http://www.w3.org/2000/svg">
<path d="M41.25 24.375C40.7527 24.375 40.2758 24.5725 39.9242 24.9242C39.5725 25.2758 39.375 25.7527 39.375 26.25V34.1494C39.3735 35.5348 38.8225 36.8631 37.8428 37.8428C36.8631 38.8225 35.5348 39.3735 34.1494 39.375H10.8506C9.46516 39.3735 8.13687 38.8225 7.15719 37.8428C6.17752 36.8631 5.62649 35.5348 5.625 34.1494V26.25C5.625 25.7527 5.42746 25.2758 5.07583 24.9242C4.72419 24.5725 4.24728 24.375 3.75 24.375C3.25272 24.375 2.77581 24.5725 2.42417 24.9242C2.07254 25.2758 1.875 25.7527 1.875 26.25V34.1494C1.87748 36.5291 2.82392 38.8106 4.50664 40.4934C6.18936 42.1761 8.4709 43.1225 10.8506 43.125H34.1494C36.5291 43.1225 38.8106 42.1761 40.4934 40.4934C42.1761 38.8106 43.1225 36.5291 43.125 34.1494V26.25C43.125 25.7527 42.9275 25.2758 42.5758 24.9242C42.2242 24.5725 41.7473 24.375 41.25 24.375Z" fill="white"/>
<path d="M12.576 16.3252L20.6254 8.27585V31.8746C20.6254 32.3719 20.8229 32.8488 21.1746 33.2004C21.5262 33.5521 22.0031 33.7496 22.5004 33.7496C22.9977 33.7496 23.4746 33.5521 23.8262 33.2004C24.1779 32.8488 24.3754 32.3719 24.3754 31.8746V8.27585L32.4248 16.3252C32.7784 16.6668 33.252 16.8558 33.7437 16.8515C34.2353 16.8472 34.7055 16.65 35.0532 16.3024C35.4008 15.9547 35.598 15.4845 35.6023 14.9929C35.6066 14.5012 35.4176 14.0276 35.076 13.674L23.826 2.42397C23.4744 2.07247 22.9976 1.875 22.5004 1.875C22.0032 1.875 21.5264 2.07247 21.1748 2.42397L9.92477 13.674C9.58323 14.0276 9.39424 14.5012 9.39851 14.9929C9.40278 15.4845 9.59997 15.9547 9.94761 16.3024C10.2953 16.65 10.7655 16.8472 11.2571 16.8515C11.7488 16.8558 12.2224 16.6668 12.576 16.3252Z" fill="white"/>
</svg>
